<?xml version="1.0" encoding="utf-8"?>
<!-- Generator: Adobe Illustrator 23.0.1, SVG Export Plug-In . SVG Version: 6.00 Build 0)  -->
<svg version="1.1" id="Layer_1" xmlns="http://www.w3.org/2000/svg" xmlns:xlink="http://www.w3.org/1999/xlink" x="0px" y="0px"
	 viewBox="0 0 184.8 222" style="enable-background:new 0 0 184.8 222;" xml:space="preserve">
<style type="text/css">
	.st0{fill:#009DFF;}
</style>
<title>connect0_16</title>
<path class="st0" d="M45.8,0C32.1,11.4,24.7,30,25.2,52.7c0.5,24.6,10,51.1,26.8,74.5c24,33.5,58.3,54.2,89.4,54.2
	c10.9,0,20.7-2.6,29.1-7.9L45.8,0z"/>
<path class="st0" d="M182.3,33.5c-4.3-6-12.8-7.4-18.8-3.1c-3.5,2.5-5.6,6.5-5.6,10.9l-55.6,16.6c-2.7,0.8-4.3,3.7-3.5,6.5
	c0.8,2.7,3.7,4.3,6.5,3.5l50.1-15l-30.2,42.7c-1.7,2.3-1.1,5.6,1.2,7.2c2.3,1.7,5.6,1.1,7.2-1.2l0,0l33.4-47.4
	c7.1,2.3,14.7-1.5,17-8.5C185.5,41.5,184.8,37,182.3,33.5z"/>
<path class="st0" d="M52.8,139.4l-1.5,1.3c0,0-51.3,36.9-51.3,81.3h89.2v-50.1C75.4,163.1,63.1,152.2,52.8,139.4z"/>
</svg>
