<?xml version="1.0" encoding="utf-8"?>
<!-- Generator: Adobe Illustrator 23.0.1, SVG Export Plug-In . SVG Version: 6.00 Build 0)  -->
<svg version="1.1" id="Layer_1" xmlns="http://www.w3.org/2000/svg" xmlns:xlink="http://www.w3.org/1999/xlink" x="0px" y="0px"
	 viewBox="0 0 512 512" style="enable-background:new 0 0 512 512;" xml:space="preserve">
<style type="text/css">
	.st0{fill:#747C83;stroke:#FFFFFF;stroke-miterlimit:10;}
</style>
<path id="XMLID_4823_" class="st0" d="M165.7,178.7c0-7.8,5.1-12.9,12.9-12.9H287c5.1,10.4,11.5,19.3,20.7,25.8H178.6
	C170.9,191.5,165.7,186.3,165.7,178.7z M281.9,320.5H178.6c-7.8,0-12.9,5.1-12.9,12.9s5.1,12.9,12.9,12.9h103.3
	c7.8,0,12.9-5.1,12.9-12.9C294.8,325.7,289.5,320.5,281.9,320.5z M333.4,243.1H178.6c-7.8,0-12.9,5.1-12.9,12.9s5.1,12.9,12.9,12.9
	h154.9c7.8,0,12.9-5.1,12.9-12.9C346.3,248.4,341.3,243.1,333.4,243.1z M410.8,140v25.8v40V398c0,36.1-28.3,64.5-64.5,64.5H165.7
	c-36.1,0-64.5-28.3-64.5-64.5V114c0-36.1,28.3-64.5,64.5-64.5H243h51.6h25.8c3.9,0,6.4,1.4,9,3.9l77.3,77.3
	C409.6,133.5,410.8,136.1,410.8,140z M320.6,101.1c0,21.9,16.8,38.7,38.7,38.7h20.7l-59.4-59.4V101.1z M385,165.8h-25.8
	c-36.1,0-64.5-28.3-64.5-64.5V75.5h-51.6h-77.3c-21.9,0-38.7,16.8-38.7,38.7V398c0,21.9,16.8,38.7,38.7,38.7h180.7
	c21.9,0,38.7-16.8,38.7-38.7V205.8v-40H385z"/>
</svg>
