<?xml version="1.0" encoding="utf-8"?>
<!-- Generator: Adobe Illustrator 23.0.1, SVG Export Plug-In . SVG Version: 6.00 Build 0)  -->
<svg version="1.1" id="bda59a3b-c42e-4462-9541-2c9acdad19d6"
	 xmlns="http://www.w3.org/2000/svg" xmlns:xlink="http://www.w3.org/1999/xlink" x="0px" y="0px" viewBox="0 0 190.3 249.6"
	 style="enable-background:new 0 0 190.3 249.6;" xml:space="preserve">
<style type="text/css">
	.st0{fill:#3AC11A;}
</style>
<title>lock_closed</title>
<path class="st0" d="M176.7,119.1h-7.2V74.3C169.5,33.3,136.2,0,95.1,0C54.1,0,20.8,33.3,20.8,74.3v44.8h-7.2
	c-7.5,0-13.6,6.1-13.6,13.6V236c0,7.5,6.1,13.6,13.6,13.6h163.1c7.5,0,13.6-6.1,13.6-13.6V132.7
	C190.3,125.2,184.2,119.1,176.7,119.1z M102.9,185.4v37.7c0,4.3-3.5,7.8-7.8,7.8c-4.3,0-7.8-3.5-7.8-7.8v-37.7
	c-11.2-4.3-16.9-16.8-12.6-28.1s16.8-16.9,28.1-12.6c11.2,4.3,16.9,16.8,12.6,28.1C113.3,178.6,108.7,183.2,102.9,185.4z
	 M132.3,119.1H58V74.3c0-20.5,16.6-37.2,37.2-37.2s37.2,16.6,37.2,37.2c0,0,0,0,0,0V119.1z"/>
</svg>
