<?xml version="1.0" encoding="utf-8"?>
<!-- Generator: Adobe Illustrator 23.0.1, SVG Export Plug-In . SVG Version: 6.00 Build 0)  -->
<svg version="1.1" id="Layer_1" xmlns="http://www.w3.org/2000/svg" xmlns:xlink="http://www.w3.org/1999/xlink" x="0px" y="0px"
	 viewBox="0 0 190.3 249.6" style="enable-background:new 0 0 190.3 249.6;" xml:space="preserve">
<style type="text/css">
	.st0{fill:#3AC11A;}
</style>
<title>lock_open</title>
<path class="st0" d="M176.7,119.1h-7.2V74.3c0-41-33.3-74.3-74.4-74.3C60.5,0,30.5,23.9,22.7,57.6l36.8,6
	c5.9-19.7,26.6-30.8,46.3-24.9c15.7,4.7,26.5,19.2,26.5,35.6v44.8H13.6c-7.5,0-13.6,6.1-13.6,13.6V236c0,7.5,6.1,13.6,13.6,13.6
	h163.1c7.5,0,13.6-6.1,13.6-13.6V132.7C190.3,125.2,184.2,119.1,176.7,119.1z M102.9,185.4v37.7c0,4.3-3.5,7.8-7.8,7.8
	s-7.8-3.5-7.8-7.8v-37.7c-11.2-4.3-16.9-16.8-12.6-28.1s16.8-16.9,28.1-12.6c11.2,4.3,16.9,16.8,12.6,28.1
	C113.3,178.6,108.7,183.2,102.9,185.4z"/>
</svg>
