<?xml version="1.0" encoding="utf-8"?>
<!-- Generator: Adobe Illustrator 23.0.1, SVG Export Plug-In . SVG Version: 6.00 Build 0)  -->
<svg version="1.1" id="Layer_1" xmlns="http://www.w3.org/2000/svg" xmlns:xlink="http://www.w3.org/1999/xlink" x="0px" y="0px"
	 viewBox="0 0 512 512" style="enable-background:new 0 0 512 512;" xml:space="preserve">
<style type="text/css">
	.st0{fill:#FFFFFF;}
</style>
<path class="st0" d="M255.3,15h-0.2c-132.3,0-240,107.7-240,240s107.7,240,240,240s240-107.7,240-240S387.6,15.1,255.3,15L255.3,15z
	 M130.5,245.4H34.7c2-46.9,18.6-90.1,45.5-125c18.8,10,40.2,18.2,63.6,24.4C135.9,175,131.2,209,130.5,245.4z M162.9,149.3
	c27.2,5.8,54.9,9,82.6,9.6v86.5h-95.9C150.4,210.9,155.1,178.3,162.9,149.3L162.9,149.3z M130.5,264.6c0.7,36.3,5.4,70.3,13.3,100.4
	c-23.6,6.3-45,14.7-63.4,24.8c-27-34.9-43.6-78.2-45.6-125.2L130.5,264.6L130.5,264.6z M149.7,264.6h95.9v86.5
	c-28.9,0.6-56.7,3.9-82.7,9.4C155.1,331.6,150.4,299,149.7,264.6L149.7,264.6z M264.7,158.9c28.9-0.6,56.7-3.9,82.7-9.4
	c7.7,28.9,12.4,61.5,13.2,95.9h-95.9L264.7,158.9L264.7,158.9z M264.7,264.6h95.9c-0.7,34.5-5.5,67.1-13.2,96.1
	c-27.2-5.8-54.9-9-82.6-9.6L264.7,264.6L264.7,264.6z M379.8,264.6h95.8c-2,46.9-18.6,90.1-45.5,125c-18.8-9.9-40.2-18.2-63.6-24.4
	C374.4,335,379.1,301,379.8,264.6z M379.8,245.4c-0.7-36.3-5.4-70.3-13.3-100.4c23.6-6.3,45-14.7,63.4-24.8
	c27,34.9,43.6,78.2,45.6,125.2H379.8L379.8,245.4z M417.2,105.3c-16.4,8.6-35.4,15.8-56.1,21.3c-11.6-35.8-27.9-65-47.5-84.5
	C353.9,53.1,389.6,75.4,417.2,105.3L417.2,105.3z M341.9,131.1c-24.2,5-50.2,8.1-77.2,8.6V35.2C296.3,41.5,324.4,78.3,341.9,131.1z
	 M245.5,35.2v104.5c-25.9-0.6-51.7-3.5-77.1-8.8C185.9,78.3,214,41.5,245.5,35.2z M196.7,42.1c-19.5,19.5-35.8,48.6-47.4,84.3
	c-20.5-5.5-39.5-12.5-56.3-21C120.6,75.5,156.3,53.2,196.7,42.1z M93.1,404.7c16.4-8.6,35.4-15.8,56.1-21.3
	c11.6,35.8,27.9,65,47.5,84.5C156.4,456.9,120.7,434.6,93.1,404.7L93.1,404.7z M168.4,378.9c24.2-5,50.2-8,77.2-8.6v104.5
	C213.9,468.5,185.9,431.7,168.4,378.9z M264.7,474.8V370.3c26.7,0.6,52.7,3.7,77.1,8.8C324.4,431.7,296.3,468.5,264.7,474.8z
	 M313.6,467.9c19.5-19.5,35.8-48.6,47.4-84.3c20.6,5.5,39.5,12.5,56.3,21C389.7,434.5,354,456.9,313.6,467.9L313.6,467.9z"/>
</svg>
