<?xml version="1.0" encoding="utf-8"?>
<!-- Generator: Adobe Illustrator 23.0.1, SVG Export Plug-In . SVG Version: 6.00 Build 0)  -->
<svg version="1.1" id="Layer_1" xmlns="http://www.w3.org/2000/svg" xmlns:xlink="http://www.w3.org/1999/xlink" x="0px" y="0px"
	 viewBox="0 0 512 512" style="enable-background:new 0 0 512 512;" xml:space="preserve">
<style type="text/css">
	.st0{fill:#747C83;}
</style>
<g>
	<path class="st0" d="M224.1,198.5c49.2-23.7,101.8-48.3,112.3-55.3l2.6-1.8c22.8-10.5,40.4-32.5,45.6-56.2
		c-84.3-64.9-204.5-57-280,19.3c-61.4,62.3-78.1,153.6-46.5,231.7c2.6-14.9,9.7-58.8,73.7-93C144.3,237.1,182.9,218.7,224.1,198.5z"
		/>
	<path class="st0" d="M272.4,260.8c49.2-23.7,101.8-48.3,112.3-55.3l2.6-1.8c25.5-12.3,43-37.7,46.5-65.8
		c-2.6-5.3-5.3-10.5-9.7-14.9c-1.8,21.1-14.9,52.7-71.1,78.1c-91.3,43-172,84.3-185.2,92.2c0,0-1.8,0-2.6,1.8
		c-18.4,10.5-76.4,43-68.5,103.6c2.6,4.4,5.3,7,7.9,9.7c1.8-25.5,12.3-49.2,29.8-66.7c13.2-13.2,28.1-23.7,45.6-33.4
		C192.5,300.3,231.1,281,272.4,260.8z"/>
	<path class="st0" d="M462.9,203.7c-7.9,29.8-30.7,53.5-58.8,64.1c-91.3,40.4-180.8,86.9-203.6,100.9c-1.8,0-2.6,1.8-5.3,2.6
		c-18.4,9.7-45.6,23.7-40.4,73.7c32.5,15.8,66.7,25.5,101.8,25.5c56.2,0,111.5-22.8,150.1-61.4C460.2,354.7,481.3,277.5,462.9,203.7
		z"/>
</g>
</svg>
