<?xml version="1.0" encoding="utf-8"?>
<!-- Generator: Adobe Illustrator 23.0.1, SVG Export Plug-In . SVG Version: 6.00 Build 0)  -->
<svg version="1.1" id="Layer_1" xmlns="http://www.w3.org/2000/svg" xmlns:xlink="http://www.w3.org/1999/xlink" x="0px" y="0px"
	 viewBox="0 0 512 512" style="enable-background:new 0 0 512 512;" xml:space="preserve">
<style type="text/css">
	.st0{fill:#747C83;}
</style>
<g>
	<path class="st0" d="M209.4,198.1c1.2,2.2,4.5,3.3,6.6,3.3h2.2c2.2,0,4.5-1.2,6.6-3.3l46.9-46.9c2.2-1.2,3.3-4.5,3.3-6.6
		c0-2.2-1.2-4.5-3.3-6.6c-4.5-3.3-10.1-3.3-13.4,0l-31,32.2V47.1c0-5.6-4.5-10.1-9-10.1c-5.6,0-10.1,4.5-10.1,10.1V169l-32.3-32.3
		c-4.5-3.3-10.1-3.3-13.4,0c-3.3,3.3-3.3,10.1,0,13.4L209.4,198.1z"/>
	<g>
		<g>
			<path class="st0" d="M384.7,148.5h-70.3c0,1.3,0,1.3,0,2.7c0,2.7-1.3,5.3-4,8l-13.3,13.3h39.8c11.9,0,22.6,9.3,22.6,22.6v46.4
				H325c-31.8,0-57.1,25.2-57.1,57.1c0,31.8,25.2,57.1,57.1,57.1h34.5v46.4c0,11.9-9.3,22.6-22.6,22.6h-231
				c-11.9,0-22.6-9.3-22.6-22.6v-207c0-11.9,9.3-22.6,22.6-22.6H143l-13.3-13.3c-2.7-2.7-4-5.3-4-9.3h-19.9
				c-25.2,0-46.4,21.2-46.4,46.4v207.2c0,25.2,21.2,46.4,46.4,46.4h229.7v-1.3h49.1c25.2,0,46.4-21.2,46.4-46.4V195.1
				C431.1,168.5,409.9,148.5,384.7,148.5z M382,173.8c11.9,0,22.6,9.3,22.6,22.6v46.4H382v-46.4c0-8-2.7-15.9-6.6-22.6L382,173.8
				L382,173.8z M404.6,403.6c0,11.9-9.3,22.6-22.6,22.6h-6.6c4-6.6,6.6-14.6,6.6-22.6v-46.4h22.6V403.6z M405.9,334.4H325
				c-18.6,0-34.5-15.9-34.5-34.5s14.6-34.5,34.5-34.5h80.9V334.4z"/>
		</g>
		<path class="st0" d="M311.5,299.9c0-6.6,5.3-11.9,11.9-11.9s11.9,5.3,11.9,11.9s-5.3,11.9-11.9,11.9l0,0
			C316.8,311.8,311.5,306.5,311.5,299.9z"/>
	</g>
</g>
</svg>
