<?xml version="1.0" encoding="utf-8"?>
<!-- Generator: Adobe Illustrator 23.0.1, SVG Export Plug-In . SVG Version: 6.00 Build 0)  -->
<svg version="1.1" id="Layer_1" xmlns="http://www.w3.org/2000/svg" xmlns:xlink="http://www.w3.org/1999/xlink" x="0px" y="0px"
	 viewBox="0 0 512 512" style="enable-background:new 0 0 512 512;" xml:space="preserve">
<style type="text/css">
	.st0{fill:#747C83;}
</style>
<g>
	<path class="st0" d="M211,47.2c1.1-2.1,4.3-3.2,6.4-3.2h2.1c2.1,0,4.3,1.1,6.4,3.2l45.5,45.5c2.1,1.1,3.2,4.3,3.2,6.4
		s-1.1,4.3-3.2,6.4c-4.3,3.2-9.8,3.2-13,0l-30.1-31.2v119.1c0,5.5-4.3,9.8-8.7,9.8c-5.5,0-9.8-4.3-9.8-9.8v-118l-31.4,31.4
		c-4.3,3.2-9.8,3.2-13,0s-3.2-9.8,0-13L211,47.2z"/>
	<g>
		<g>
			<path class="st0" d="M381,152.2h-68.2c0,1.3,0,1.3,0,2.6c0,2.6-1.3,5.1-3.9,7.7L296,175.4h38.6c11.6,0,21.9,9,21.9,21.9v45h-33.4
				c-30.9,0-55.3,24.4-55.3,55.3s24.4,55.3,55.3,55.3h33.4v45c0,11.6-9,21.9-21.9,21.9h-224c-11.6,0-21.9-9-21.9-21.9V197.2
				c0-11.6,9-21.9,21.9-21.9h36l-12.9-12.9c-2.6-2.6-3.9-5.1-3.9-9h-19.3c-24.4,0-45,20.6-45,45v200.8c0,24.4,20.6,45,45,45h222.7
				V443H381c24.4,0,45-20.6,45-45V197.2C426.2,171.5,405.6,152.2,381,152.2z M378.4,176.6c11.6,0,21.9,9,21.9,21.9v45h-21.9v-45
				c0-7.7-2.6-15.4-6.4-21.9H378.4z M400.3,399.3c0,11.6-9,21.9-21.9,21.9H372c3.9-6.4,6.4-14.1,6.4-21.9v-45h21.9V399.3z
				 M401.7,332.3h-78.5c-18,0-33.4-15.4-33.4-33.4s14.1-33.4,33.4-33.4h78.5V332.3z"/>
		</g>
		<path class="st0" d="M310.2,298.8c0-6.4,5.1-11.6,11.6-11.6c6.4,0,11.6,5.1,11.6,11.6c0,6.4-5.1,11.6-11.6,11.6l0,0
			C315.4,310.4,310.2,305.3,310.2,298.8z"/>
	</g>
</g>
</svg>
