<?xml version="1.0" encoding="utf-8"?>
<!-- Generator: Adobe Illustrator 23.0.1, SVG Export Plug-In . SVG Version: 6.00 Build 0)  -->
<svg version="1.1" id="Layer_1" xmlns="http://www.w3.org/2000/svg" xmlns:xlink="http://www.w3.org/1999/xlink" x="0px" y="0px"
	 viewBox="0 0 512 512" style="enable-background:new 0 0 512 512;" xml:space="preserve">
<style type="text/css">
	.st0{fill:#3AC11A;}
</style>
<g>
	<path class="st0" d="M255.9,449.2c107.1,0,194-87.1,194-194c0-107.1-87.1-194-194-194s-194,87.1-194,194
		C61.7,362.1,148.8,449.2,255.9,449.2 M255.9,479c-123.7,0-224-100.3-224-224s100.3-224,224-224s224,100.3,224,224
		S379.5,479,255.9,479z"/>
	<path id="XMLID_4435_" class="st0" d="M373,305.7c0,5.2-1.5,8.1-5.2,11.7c-6.7,6.7-16.8,6.7-23.5,0L255.7,228l-88.6,89.3
		c-6.7,6.7-16.8,6.7-23.5,0c-6.7-6.7-6.7-16.8,0-23.5l100.4-101c6.7-6.7,16.8-6.7,23.5,0L368,293.3C371.5,296.8,373,300.5,373,305.7
		z"/>
</g>
</svg>
