<?xml version="1.0" encoding="utf-8"?>
<!-- Generator: Adobe Illustrator 23.0.1, SVG Export Plug-In . SVG Version: 6.00 Build 0)  -->
<svg version="1.1" id="Layer_1" xmlns="http://www.w3.org/2000/svg" xmlns:xlink="http://www.w3.org/1999/xlink" x="0px" y="0px"
	 viewBox="0 0 512 512" style="enable-background:new 0 0 512 512;" xml:space="preserve">
<style type="text/css">
	.st0{fill:#3AC11A;}
</style>
<path class="st0" d="M32,255c0,123.7,100.3,224,224,224s224-100.3,224-224S379.7,31,256,31S32,131.3,32,255z M448.4,255
	c0,106.2-86.1,192.4-192.4,192.4S63.6,361.2,63.6,255S149.7,62.6,256,62.6S448.4,148.8,448.4,255z M274.1,245
	c6.3-6.2,16.4-6.2,22.7,0l62,62c3.1,3.2,4.7,7.3,4.7,11.4s-1.6,8.2-4.7,11.3l-62,62c-6.3,6.3-16.4,6.3-22.7,0
	c-6.2-6.3-6.2-16.4,0-22.7l33.9-34H164.6c-8.8,0-16-7.2-16-16s7.2-16,16-16h144l-0.6-1.5l-33.9-33.8
	C267.8,261.4,267.8,251.3,274.1,245z M237.9,121c6.2,6.3,6.2,16.4,0,22.7L204,177.5h143.4c8.8,0,16,7.2,16,16s-7.2,16-16,16h-144
	l0.6,1.5l33.9,33.9c6.2,6.2,6.2,16.4,0,22.7c-6.3,6.2-16.4,6.2-22.7,0l-62-62c-3.1-3.2-4.7-7.3-4.7-11.4c0-4.1,1.6-8.2,4.7-11.3
	l62-62C221.5,114.7,231.6,114.7,237.9,121z"/>
</svg>
