<?xml version="1.0" encoding="utf-8"?>
<!-- Generator: Adobe Illustrator 23.0.1, SVG Export Plug-In . SVG Version: 6.00 Build 0)  -->
<svg version="1.1" id="Layer_1" xmlns="http://www.w3.org/2000/svg" xmlns:xlink="http://www.w3.org/1999/xlink" x="0px" y="0px"
	 viewBox="0 0 512 512" style="enable-background:new 0 0 512 512;" xml:space="preserve">
<style type="text/css">
	.st0{fill:#3AC11A;}
</style>
<path class="st0" d="M159.6,202.5v125.7c0,9.8,8,17.8,17.8,17.8h125.7c9.8,0,17.8-8,17.8-17.8c0-9.8-8-17.8-17.8-17.8h-82.8
	L340.8,190c7-7,7-18.2,0-25.1c-7-7-18.2-7-25.1,0L195.1,285.3v-82.8c0-4.9-2-9.3-5.2-12.6c-3.2-3.2-7.7-5.2-12.6-5.2
	C167.6,184.7,159.6,192.7,159.6,202.5z"/>
</svg>
